<svg width="1200" height="720" viewBox="0 0 1200 720" fill="none" xmlns="http://www.w3.org/2000/svg">
  <rect width="1200" height="720" rx="40" fill="#0F172A"/>
  <rect x="36" y="36" width="1128" height="648" rx="28" fill="url(#paint0_linear_87_2)" fill-opacity="0.22"/>
  <rect x="240" y="120" width="720" height="460" rx="24" fill="#1E293B"/>
  <rect x="280" y="170" width="640" height="320" rx="18" fill="#334155"/>
  <rect x="320" y="220" width="220" height="22" rx="11" fill="#6366F1"/>
  <rect x="320" y="260" width="450" height="18" rx="9" fill="#94A3B8"/>
  <rect x="320" y="292" width="370" height="18" rx="9" fill="#94A3B8"/>
  <rect x="320" y="324" width="410" height="18" rx="9" fill="#94A3B8"/>
  <rect x="320" y="356" width="260" height="18" rx="9" fill="#94A3B8"/>
  <circle cx="810" cy="340" r="56" fill="#22C55E" fill-opacity="0.22"/>
  <path d="M785 342L805 362L838 322" stroke="#22C55E" stroke-width="12" stroke-linecap="round" stroke-linejoin="round"/>
  <text x="150" y="620" fill="#E2E8F0" font-size="50" font-family="Inter, Arial, sans-serif" font-weight="700">Clarify AI Student Assistant</text>
  <defs>
    <linearGradient id="paint0_linear_87_2" x1="64" y1="64" x2="1144" y2="676" gradientUnits="userSpaceOnUse">
      <stop stop-color="#6366F1"/>
      <stop offset="1" stop-color="#0EA5E9"/>
    </linearGradient>
  </defs>
</svg>
