<svg width="1200" height="720" viewBox="0 0 1200 720" fill="none" xmlns="http://www.w3.org/2000/svg">
  <rect width="1200" height="720" rx="40" fill="#0F172A"/>
  <rect x="36" y="36" width="1128" height="648" rx="28" fill="url(#paint0_linear_85_2)" fill-opacity="0.25"/>
  <g opacity="0.85">
    <rect x="330" y="150" width="540" height="420" rx="20" fill="#1E293B"/>
    <g fill="#334155">
      <rect x="360" y="180" width="60" height="60"/><rect x="480" y="180" width="60" height="60"/><rect x="600" y="180" width="60" height="60"/><rect x="720" y="180" width="60" height="60"/>
      <rect x="420" y="240" width="60" height="60"/><rect x="540" y="240" width="60" height="60"/><rect x="660" y="240" width="60" height="60"/>
      <rect x="360" y="300" width="60" height="60"/><rect x="480" y="300" width="60" height="60"/><rect x="600" y="300" width="60" height="60"/><rect x="720" y="300" width="60" height="60"/>
      <rect x="420" y="360" width="60" height="60"/><rect x="540" y="360" width="60" height="60"/><rect x="660" y="360" width="60" height="60"/>
      <rect x="360" y="420" width="60" height="60"/><rect x="480" y="420" width="60" height="60"/><rect x="600" y="420" width="60" height="60"/><rect x="720" y="420" width="60" height="60"/>
    </g>
  </g>
  <text x="110" y="594" fill="#E2E8F0" font-size="52" font-family="Inter, Arial, sans-serif" font-weight="700">Zion Chess Engine</text>
  <defs>
    <linearGradient id="paint0_linear_85_2" x1="64" y1="64" x2="1144" y2="676" gradientUnits="userSpaceOnUse">
      <stop stop-color="#6366F1"/>
      <stop offset="1" stop-color="#22C55E"/>
    </linearGradient>
  </defs>
</svg>
